<svg viewBox="0 0 73.64 52.54" xmlns="http://www.w3.org/2000/svg"><g fill="#444764"><path d="m13.67 11.87h-.56l-1.13-4.64-1.13 4.64h-.55l-1.13-5.14h.46l.98 4.72 1.12-4.72h.5l1.15 4.72.98-4.72h.43l-1.13 5.14z"/><path d="m16.35 6.54c0 .17-.13.32-.33.32s-.32-.14-.32-.32.13-.31.32-.31.33.14.33.31zm-.11 5.34h-.44v-3.93h.44z"/><path d="m19.72 7.91-.08.41c-.1-.03-.21-.05-.34-.05-.54 0-.83.39-1.04 1.19v2.4h-.44v-3.93h.38l.04.88c.2-.65.56-.96 1.1-.96.16 0 .29.01.39.04z"/><path d="m25.74 9.89c0 1.26-.54 2.06-1.49 2.06-.5 0-.88-.25-1.13-.58l-.04.5h-.38v-5.53l.44-.05v2.19c.28-.38.67-.62 1.18-.62.89 0 1.43.72 1.43 2.03zm-.46 0c0-1.16-.39-1.67-1.06-1.67-.51 0-.83.3-1.09.68v2.08c.25.36.59.62 1.04.62.69 0 1.11-.56 1.11-1.7z"/><path d="m29.78 10.08h-2.62c.05 1.07.55 1.51 1.22 1.51.43 0 .71-.14 1.06-.39l.2.28c-.37.3-.77.48-1.28.48-1.04 0-1.67-.75-1.67-2.01s.61-2.08 1.57-2.08c1.02 0 1.53.74 1.53 1.9 0 .12 0 .24-.01.31zm-.41-.45c0-.86-.35-1.4-1.09-1.4-.61 0-1.07.46-1.13 1.52h2.21v-.11z"/><path d="m33.21 8.3-.2.29c-.35-.24-.64-.36-1.04-.36-.52 0-.87.25-.87.66s.25.56.95.74c.86.23 1.26.52 1.26 1.19 0 .73-.63 1.14-1.42 1.14-.64 0-1.07-.22-1.4-.5l.24-.28c.34.26.67.41 1.16.41.56 0 .96-.27.96-.75s-.22-.65-1.03-.87c-.84-.22-1.18-.53-1.18-1.07 0-.6.56-1.03 1.31-1.03.5 0 .89.15 1.25.44z"/><path d="m36.91 8.26-.22.29c-.25-.2-.51-.31-.87-.31-.71 0-1.22.56-1.22 1.69s.5 1.64 1.21 1.64c.37 0 .63-.12.91-.33l.21.29c-.31.26-.68.42-1.13.42-1.01 0-1.67-.74-1.67-2.02s.65-2.07 1.66-2.07c.44 0 .78.11 1.11.4z"/><path d="m40.79 9.07v2.81h-.43v-2.75c0-.64-.26-.91-.74-.91-.53 0-.9.33-1.22.81v2.85h-.44v-5.53l.44-.05v2.3c.32-.44.74-.73 1.3-.73.71 0 1.09.46 1.09 1.2z"/><path d="m45.06 11.65-.1.31c-.34-.08-.55-.25-.61-.65-.29.44-.7.65-1.22.65-.76 0-1.22-.47-1.22-1.17 0-.83.62-1.27 1.63-1.27h.75v-.38c0-.62-.25-.9-.91-.9-.31 0-.68.08-1.07.23l-.11-.33c.43-.17.83-.26 1.24-.26.89 0 1.28.44 1.28 1.25v1.89c0 .44.12.56.33.65zm-.77-.75v-1.07h-.68c-.79 0-1.23.31-1.23.93 0 .54.31.84.83.84s.85-.25 1.09-.71zm-1.28-4.29c0 .17-.13.29-.3.29s-.3-.13-.3-.29.13-.3.3-.3.3.13.3.3zm1.42 0c0 .17-.13.29-.3.29s-.3-.13-.3-.29.13-.3.3-.3.3.13.3.3z"/><path d="m46.79 7.32v.63h.92l-.05.35h-.87v3.57h-.44v-3.57h-.68v-.35h.68v-.65c0-.62.41-1.01 1.09-1.01.21 0 .41.03.59.08l-.09.35c-.16-.05-.31-.08-.47-.08-.44 0-.68.2-.68.66z"/><path d="m50.51 11.71c-.24.16-.51.25-.83.25-.59 0-.96-.35-.96-1.04v-2.62h-.66v-.35h.66v-.94l.44-.05v.99h1.01l-.05.35h-.96v2.6c0 .46.18.68.58.68.22 0 .41-.06.6-.17z"/><path d="m51.83 6.54c0 .17-.13.32-.33.32s-.32-.14-.32-.32.13-.31.32-.31.33.14.33.31zm-.11 5.34h-.44v-3.93h.44z"/><path d="m56.22 8.03c-.27.08-.62.1-1.09.11.41.19.67.53.67 1.07 0 .77-.53 1.29-1.42 1.29-.19 0-.36-.02-.51-.07-.19.1-.3.27-.3.45 0 .23.15.41.62.41h.64c.78 0 1.26.42 1.26 1.01 0 .71-.56 1.13-1.7 1.13s-1.64-.35-1.64-1.13h.41c0 .55.29.77 1.23.77s1.26-.28 1.26-.74c0-.42-.33-.65-.88-.65h-.64c-.65 0-.97-.32-.97-.69 0-.26.16-.5.43-.67-.45-.23-.66-.58-.66-1.1 0-.79.58-1.33 1.44-1.33 1.05.01 1.34-.1 1.72-.26l.14.42zm-2.85 1.16c0 .63.39.99.99.99.64 0 .99-.36.99-.98s-.32-1-.99-1-.99.41-.99.99z"/><path d="m59.87 10.08h-2.62c.05 1.07.55 1.51 1.22 1.51.43 0 .71-.14 1.06-.39l.2.28c-.37.3-.77.48-1.28.48-1.04 0-1.67-.75-1.67-2.01s.61-2.08 1.57-2.08c1.02 0 1.53.74 1.53 1.9 0 .12 0 .24-.01.31zm-.41-.45c0-.86-.34-1.4-1.09-1.4-.61 0-1.07.46-1.13 1.52h2.21v-.11z"/><path d="m63.93 9.07v2.81h-.44v-2.75c0-.65-.26-.91-.74-.91-.53 0-.9.33-1.22.81v2.85h-.44v-3.93h.38l.04.66c.32-.44.76-.74 1.32-.74.71 0 1.09.44 1.09 1.2z"/></g><path d="m28.59 22.51h-1.05l-2.7 7.18-2.96-7.18h-2.84v.34c1.33.1 1.55.61 2.08 1.9l2.94 6.98-.26.69c-.65 1.71-.97 2.58-1.81 2.58-.93 0-1.19-1.13-1.19-1.65h-1.73c0 .71.54 2.42 2.64 2.42 1.86 0 2.38-1.39 3.21-3.57l3.65-9.7z" fill="#e52421"/><path d="m9.2 31.76h1.73v-6.53h5.81v6.53h1.73v-13.35h-1.73v6.05h-5.81v-6.05l-3.71.46v.34c1.35.16 1.98.1 1.98 1.47v11.09z" fill="#e52421"/><path d="m31.92 26.22v1.3c0 1.33.5 3.53 2.24 3.53.15 0 .29-.02.42-.05v.82h-.12c-1.39 0-2.24-.91-2.5-1.57h-.04v5.7h-1.53v-11.54c0-1.25-.99-1.27-1.57-1.33v-.34l3.09-.46v1.51h.04c.24-.58 1.07-1.51 2.38-1.51 1.97 0 3.09 1.25 3.48 3.1l-1.55 2.55c.02-.28.03-.56.03-.81 0-1.39-.38-4.07-2.2-4.07-1.37 0-2.18 1.69-2.18 3.15z" fill="#e52421" fill-rule="evenodd"/><path d="m53.23 31.02c-.44.12-.93.24-1.41.24-2.76 0-4.15-2.8-4.15-4.72v-.42h5.79v-.3c0-2.36-1.47-3.45-3.33-3.45-2.9 0-3.99 1.69-3.99 4.54 0 3.31 1.71 5.12 4.62 5.12 1.23 0 2.22-.26 2.46-.36v-.65zm-1.49-5.57h-4.05c.06-.67.38-2.3 2.18-2.3 1.19 0 1.86 1.01 1.86 2.12v.18z" fill="#808080" fill-rule="evenodd"/><path d="m55.43 31.81h1.53v-4.76c0-1.21.28-3.15 2.2-3.15.22 0 .44.08.65.14v-1.65c-.06-.02-.12-.02-.18-.02-1.88 0-2.38 1.53-2.64 2.36h-.04v-2.36l-3.03.48v.34c.58.06 1.51.12 1.51 1.37v7.26z" fill="#808080"/><path d="m66.28 31.18c-.24.04-.5.08-.75.08-.97 0-1.69-.26-1.69-1.45v-6.55h2.44v-.67h-2.46v-3.01l-1.51 1.33v1.69h-1.53v.67h1.53v5.97c0 1.86.18 2.8 2.84 2.8.38 0 .75-.04 1.13-.12v-.73z" fill="#808080"/><path d="m36.1 31.81h9.62l.1-2.98h-.61c-.14 1.35-.16 2.2-1.84 2.2h-4.98l7.14-11.72v-.85h-8.95l-.12 2.72h.61c.12-1.19.14-1.94 1.83-1.94h4.32l-7.12 11.7z" fill="#808080"/><path d="m12.97 40.98-.42.44c-.36-.29-.67-.42-1.13-.42-.74 0-1.49.56-1.49 2.09s.5 2.09 1.41 2.09c.35 0 .69-.07.98-.23v-1.56h-.92l-.08-.58h1.7v2.5c-.49.28-1.03.46-1.69.46-1.34 0-2.17-.89-2.17-2.68s1.05-2.67 2.24-2.67c.68 0 1.11.2 1.55.57z" fill="#3a3d56"/><path d="m17.13 45.67h-.59l-.05-.62c-.3.48-.67.71-1.23.71-.69 0-1.1-.44-1.1-1.21v-2.84h.69v2.76c0 .54.18.74.61.74s.75-.29.99-.68v-2.82h.69v3.96z" fill="#3a3d56"/><path d="m20.54 45.49c-.26.18-.55.27-.89.27-.67 0-1.07-.39-1.07-1.13v-2.39h-.69v-.53h.69v-.89l.69-.08v.98h.94l-.08.53h-.86v2.36c0 .4.13.59.47.59.17 0 .33-.05.53-.16l.26.46z" fill="#3a3d56"/><path d="m24.22 45.28-.16.48c-.4-.05-.65-.2-.77-.59-.28.41-.7.59-1.18.59-.79 0-1.26-.49-1.26-1.19 0-.85.64-1.31 1.74-1.31h.61v-.29c0-.57-.28-.78-.83-.78-.29 0-.66.08-1.07.21l-.17-.5c.49-.18.92-.27 1.37-.27.95 0 1.39.49 1.39 1.31v1.81c0 .35.13.46.33.53zm-1.02-.65v-.91h-.52c-.73 0-1.1.27-1.1.81 0 .47.23.71.68.71.41 0 .71-.2.93-.62z" fill="#3a3d56"/><path d="m27.97 42.05-.33.44c-.27-.2-.52-.29-.85-.29-.62 0-1.01.49-1.01 1.52s.39 1.46 1.01 1.46c.33 0 .56-.1.86-.3l.32.45c-.35.29-.75.44-1.21.44-1.07 0-1.73-.76-1.73-2.03s.65-2.1 1.73-2.1c.46 0 .84.12 1.21.43z" fill="#3a3d56"/><path d="m31.91 42.83v2.84h-.69v-2.74c0-.59-.25-.77-.63-.77-.43 0-.74.28-1 .69v2.82h-.69v-5.54l.69-.08v2.21c.29-.39.68-.64 1.17-.64.72 0 1.15.47 1.15 1.21z" fill="#3a3d56"/><path d="m35.28 45.49c-.26.18-.55.27-.89.27-.67 0-1.07-.39-1.07-1.13v-2.39h-.69v-.53h.69v-.89l.69-.08v.98h.94l-.08.53h-.86v2.36c0 .4.13.59.47.59.17 0 .33-.05.53-.16l.26.46z" fill="#3a3d56"/><path d="m38.86 43.93h-2.52c.07.92.5 1.27 1.07 1.27.39 0 .68-.1 1.03-.35l.3.41c-.39.31-.83.5-1.38.5-1.1 0-1.75-.77-1.75-2.03s.62-2.11 1.64-2.11 1.63.74 1.63 1.95c0 .14 0 .26-.01.35zm-.67-.56c0-.77-.31-1.2-.93-1.2-.53 0-.87.37-.92 1.25h1.85v-.04z" fill="#3a3d56"/><path d="m42.07 41.67-.13.68c-.12-.03-.2-.04-.34-.04-.5 0-.78.35-.95 1.11v2.26h-.69v-3.96h.59l.07.8c.21-.59.58-.89 1.06-.89.13 0 .27.02.39.04z" fill="#3a3d56"/><path d="m44.83 39.75-1.73 6.7-.59-.14 1.74-6.7.59.14z" fill="#3a3d56"/><path d="m47.14 40.29c0 .26-.2.47-.49.47s-.48-.2-.48-.47.2-.47.48-.47.49.2.49.47zm-.13 5.38h-.69v-3.96h.69z" fill="#3a3d56"/><path d="m51.41 42.83v2.84h-.69v-2.74c0-.59-.24-.77-.62-.77-.44 0-.74.28-1.01.7v2.81h-.69v-3.96h.59l.06.59c.27-.41.69-.68 1.21-.68.73 0 1.15.46 1.15 1.21z" fill="#3a3d56"/><path d="m55.77 42.83v2.84h-.69v-2.74c0-.59-.24-.77-.62-.77-.44 0-.74.28-1.01.7v2.81h-.69v-3.96h.59l.06.59c.27-.41.69-.68 1.21-.68.73 0 1.15.46 1.15 1.21z" fill="#3a3d56"/><path d="m60.11 43.93h-2.52c.07.92.5 1.27 1.07 1.27.39 0 .68-.1 1.03-.35l.3.41c-.39.31-.83.5-1.38.5-1.1 0-1.75-.77-1.75-2.03s.62-2.11 1.64-2.11 1.63.74 1.63 1.95c0 .14 0 .26-.01.35zm-.67-.56c0-.77-.31-1.2-.93-1.2-.53 0-.87.37-.92 1.25h1.85v-.04z" fill="#3a3d56"/><path d="m64.22 42.83v2.84h-.69v-2.74c0-.59-.24-.77-.62-.77-.44 0-.74.28-1.01.7v2.81h-.69v-3.96h.59l.06.59c.27-.41.69-.68 1.21-.68.73 0 1.15.46 1.15 1.21z" fill="#3a3d56"/></svg>